<?xml version="1.0" encoding="UTF-8"?>
<svg xmlns="http://www.w3.org/2000/svg" width="210mm" height="297mm" viewBox="0 0 210 297">
  <defs>
    <style>
      .cut { fill: none; stroke: #000; stroke-width: 0.35; }
      .foldV { fill: none; stroke: #00A; stroke-width: 0.25; stroke-dasharray: 2.2 1.4; }
      .txt { font-family: Arial, Helvetica, sans-serif; font-size: 3.2mm; fill: #000; }
      .guide { fill: none; stroke: #999; stroke-width: 0.2; stroke-dasharray: 2 2; }
    </style>
  </defs>

  <text class="txt" x="8" y="12">Low‑poly Teddy (50cm) — Página 03/15 — A4 100% (sin escalar)</text>
  <text class="txt" x="8" y="18">Orejas (EAR) y Hocico (SNOUT) — sin ojos impresos</text>
  <rect class="guide" x="8" y="24" width="194" height="265"/>

  <g transform="translate(10,32)">
    <text class="txt" x="0" y="-2">EAR x4</text>
    <!-- EAR trapezoid 55x45 with side tabs -->
    <g transform="translate(0,0)">
      <path class="cut" d="M 0,0 55,0 50,45 5,45 Z"/>
      <line class="foldV" x1="0" y1="0" x2="55" y2="0"/>
      <line class="foldV" x1="55" y1="0" x2="50" y2="45"/>
      <line class="foldV" x1="50" y1="45" x2="5" y2="45"/>
      <line class="foldV" x1="5" y1="45" x2="0" y2="0"/>
      <!-- tabs -->
      <path class="cut" d="M 53.93,8.60 51.07,36.40 39.43,37.15 42.29,9.35 Z"/>
      <line class="foldV" x1="55" y1="0" x2="50" y2="45"/>
      <path class="cut" d="M 1.07,36.40 3.93,8.60 15.57,9.35 12.71,37.15 Z"/>
      <line class="foldV" x1="5" y1="45" x2="0" y2="0"/>
    </g>

    <g transform="translate(65,0)">
      <path class="cut" d="M 0,0 55,0 50,45 5,45 Z"/>
      <line class="foldV" x1="0" y1="0" x2="55" y2="0"/>
      <line class="foldV" x1="55" y1="0" x2="50" y2="45"/>
      <line class="foldV" x1="50" y1="45" x2="5" y2="45"/>
      <line class="foldV" x1="5" y1="45" x2="0" y2="0"/>
      <path class="cut" d="M 53.93,8.60 51.07,36.40 39.43,37.15 42.29,9.35 Z"/>
      <line class="foldV" x1="55" y1="0" x2="50" y2="45"/>
      <path class="cut" d="M 1.07,36.40 3.93,8.60 15.57,9.35 12.71,37.15 Z"/>
      <line class="foldV" x1="5" y1="45" x2="0" y2="0"/>
    </g>

    <g transform="translate(0,70)">
      <path class="cut" d="M 0,0 55,0 50,45 5,45 Z"/>
      <line class="foldV" x1="0" y1="0" x2="55" y2="0"/>
      <line class="foldV" x1="55" y1="0" x2="50" y2="45"/>
      <line class="foldV" x1="50" y1="45" x2="5" y2="45"/>
      <line class="foldV" x1="5" y1="45" x2="0" y2="0"/>
      <path class="cut" d="M 53.93,8.60 51.07,36.40 39.43,37.15 42.29,9.35 Z"/>
      <line class="foldV" x1="55" y1="0" x2="50" y2="45"/>
      <path class="cut" d="M 1.07,36.40 3.93,8.60 15.57,9.35 12.71,37.15 Z"/>
      <line class="foldV" x1="5" y1="45" x2="0" y2="0"/>
    </g>

    <g transform="translate(65,70)">
      <path class="cut" d="M 0,0 55,0 50,45 5,45 Z"/>
      <line class="foldV" x1="0" y1="0" x2="55" y2="0"/>
      <line class="foldV" x1="55" y1="0" x2="50" y2="45"/>
      <line class="foldV" x1="50" y1="45" x2="5" y2="45"/>
      <line class="foldV" x1="5" y1="45" x2="0" y2="0"/>
      <path class="cut" d="M 53.93,8.60 51.07,36.40 39.43,37.15 42.29,9.35 Z"/>
      <line class="foldV" x1="55" y1="0" x2="50" y2="45"/>
      <path class="cut" d="M 1.07,36.40 3.93,8.60 15.57,9.35 12.71,37.15 Z"/>
      <line class="foldV" x1="5" y1="45" x2="0" y2="0"/>
    </g>

    <text class="txt" x="0" y="140">SNOUT x4</text>
    <!-- SNOUT trapezoid 60x38 -->
    <g transform="translate(0,148)">
      <path class="cut" d="M 0,0 60,0 55,38 5,38 Z"/>
      <line class="foldV" x1="0" y1="0" x2="60" y2="0"/>
      <line class="foldV" x1="60" y1="0" x2="55" y2="38"/>
      <line class="foldV" x1="55" y1="38" x2="5" y2="38"/>
      <line class="foldV" x1="5" y1="38" x2="0" y2="0"/>
      <!-- tabs -->
      <path class="cut" d="M 58.93,7.30 56.07,30.70 44.43,31.35 47.29,7.95 Z"/>
      <line class="foldV" x1="60" y1="0" x2="55" y2="38"/>
      <path class="cut" d="M 1.07,30.70 3.93,7.30 15.57,7.95 12.71,31.35 Z"/>
      <line class="foldV" x1="5" y1="38" x2="0" y2="0"/>
    </g>

    <g transform="translate(70,148)">
      <path class="cut" d="M 0,0 60,0 55,38 5,38 Z"/>
      <line class="foldV" x1="0" y1="0" x2="60" y2="0"/>
      <line class="foldV" x1="60" y1="0" x2="55" y2="38"/>
      <line class="foldV" x1="55" y1="38" x2="5" y2="38"/>
      <line class="foldV" x1="5" y1="38" x2="0" y2="0"/>
      <path class="cut" d="M 58.93,7.30 56.07,30.70 44.43,31.35 47.29,7.95 Z"/>
      <line class="foldV" x1="60" y1="0" x2="55" y2="38"/>
      <path class="cut" d="M 1.07,30.70 3.93,7.30 15.57,7.95 12.71,31.35 Z"/>
      <line class="foldV" x1="5" y1="38" x2="0" y2="0"/>
    </g>

  </g>
</svg>